# xmcd
#
# Track frame offsets:
# 150
# 53630
# 86890
# 153697
#
# Disc length: 2831 seconds
#
# Revision: 0
# Processed by: cddbd v1.5.2PL0 Copyright (c) Steve Scherf et al.
# Submitted via: Audion 3.0.2 (http://www.panic.com/audion/)
#
DISCID=2d0b0d04
DTITLE=Kurt Rosenwinkel Yoshis 5.2.01 - Kurt Rosenwinkel Yoshis 5.2.01
DYEAR=1900
DGENRE=
TTITLE0=1
TTITLE1=2
TTITLE2=3
TTITLE3=4
EXTD=
EXTT0=
EXTT1=
EXTT2=
EXTT3=
PLAYORDER=
